<svg width="300" height="390" viewBox="0 0 600 690" fill="none" xmlns="http://www.w3.org/2000/svg" xmlns:xlink="http://www.w3.org/1999/xlink">
  <g clip-path="url(#clip_0_855)" width="600" height="690" data-name="Premium motion">
    <g transform="translate(79 57.94)" class="Premium_616" width="442.5" height="552.5" data-name="Premium">
      <path d="M24 270L151 316.5L181 552.5L0 384.5L24 270Z" fill="url(#paint_linear_535)" data-name="backcrystal" class="backcrystal_448"/>
      <path d="M75.5 193.5L151.5 80L151 316L24 270L75.5 193.5Z" fill="url(#paint_linear_414)" data-name="backcrystal" class="backcrystal_448"/>
      <path d="M151.5 79.5L297.5 1L260.378 83L244.5 118.5L222.175 165.5L151 316L151.5 79.5Z" fill="url(#paint_linear_539)" data-name="backcrystal" class="backcrystal_448"/>
      <path d="M151 316L206 198L338 377L181 552.5L151 316Z" fill="url(#paint_linear_883)" data-name="backcrystal" class="backcrystal_448"/>
      <path d="M244.5 118.5L297.5 0L368 111L338 377L206 198L244.5 118.5Z" fill="url(#paint_linear_333)" data-name="backcrystal" class="backcrystal_448"/>
      <path d="M338 377L397 440L372 505.5L181 552.5L338 377Z" fill="url(#paint_linear_634)" data-name="backcrystal" class="backcrystal_448"/>
      <path d="M368 111L442.5 333L397 440L338 377L368 111Z" fill="url(#paint_linear_920)" data-name="backcrystal" class="backcrystal_448"/>
      <path d="M24 0L151 46.5L181 282.5L0 114.5L24 0Z" fill="url(#paint_linear_16)" data-name="Rectangle 15" transform="translate(0 270)"/>
      <path d="M51.5 113.5L127.5 0V236.5L0 190L51.5 113.5Z" fill="url(#paint_linear_847)" data-name="Rectangle 16" transform="translate(24 80)"/>
      <path d="M0.5 79.5L146.5 0L70.5 165L0.5 316.5V79.5Z" fill="url(#paint_linear_578)" data-name="Rectangle 17" transform="translate(151.5 0)"/>
      <path d="M0.5 118.5L56 0.5L187.5 179.5L30 354.5L0.5 118.5Z" fill="url(#paint_linear_91)" data-name="Rectangle 18" transform="translate(151.5 198.5)"/>
      <path d="M38.5 118.5L91.5 0L162 111L131.5 377.5L0.5 198.5L38.5 118.5Z" fill="url(#paint_linear_313)" data-name="Rectangle 19" transform="translate(206.5 0)"/>
      <path d="M157.5 0.5L216 63L191 128.5L0 175.5L157.5 0.5Z" fill="url(#paint_linear_218)" data-name="Rectangle 20" transform="translate(181 377.5)"/>
      <path d="M30 0L104.5 222L58 331L0.5 266.5L30 0Z" fill="url(#paint_linear_918)" data-name="Rectangle 21" transform="translate(338.5 111)"/>
    </g>
    <path d="M28.5445 303.637L2.25 431.711L204.773 620.187M28.5445 303.637L171.206 355.649M28.5445 303.637L171.206 91.1117M204.773 620.187L171.206 355.649M204.773 620.187L379.324 423.881M204.773 620.187L415.688 566.496L445.339 493.79M171.206 355.649V91.1117M171.206 355.649L232.676 223.101M171.206 91.1117L335.127 2.18684M335.127 2.18684L412.891 125.787M335.127 2.18684L232.676 223.101M412.891 125.787L379.324 423.881M412.891 125.787L496.25 372.987L445.339 493.79M379.324 423.881L232.676 223.101M379.324 423.881L445.339 493.79" stroke="white" stroke-width="1.5" data-name="Vector 2" class="Vector_2_415"/>
  </g>
  <defs>
    <clipPath id="clip_0_855">
      <rect width="600" height="690"/>
    </clipPath>
    <linearGradient id="paint_linear_535" x1="101.5" y1="33.5" x2="337.5" y2="605.5" gradientUnits="userSpaceOnUse">
      <stop stop-color="#7B88FF"/>
      <stop offset="0.421875" stop-color="#DBDEFF"/>
      <stop offset="0.692708" stop-color="#D1C3FF"/>
      <stop offset="1" stop-color="#BA84FF"/>
    </linearGradient>
    <linearGradient id="paint_linear_414" x1="101.5" y1="33.5" x2="337.5" y2="605.5" gradientUnits="userSpaceOnUse">
      <stop stop-color="#7B88FF"/>
      <stop offset="0.421875" stop-color="#DBDEFF"/>
      <stop offset="0.692708" stop-color="#D1C3FF"/>
      <stop offset="1" stop-color="#BA84FF"/>
    </linearGradient>
    <linearGradient id="paint_linear_539" x1="101.5" y1="33.5" x2="337.5" y2="605.5" gradientUnits="userSpaceOnUse">
      <stop stop-color="#7B88FF"/>
      <stop offset="0.421875" stop-color="#DBDEFF"/>
      <stop offset="0.692708" stop-color="#D1C3FF"/>
      <stop offset="1" stop-color="#BA84FF"/>
    </linearGradient>
    <linearGradient id="paint_linear_883" x1="101.5" y1="33.5" x2="337.5" y2="605.5" gradientUnits="userSpaceOnUse">
      <stop stop-color="#7B88FF"/>
      <stop offset="0.421875" stop-color="#DBDEFF"/>
      <stop offset="0.692708" stop-color="#D1C3FF"/>
      <stop offset="1" stop-color="#BA84FF"/>
    </linearGradient>
    <linearGradient id="paint_linear_333" x1="101.5" y1="33.5" x2="337.5" y2="605.5" gradientUnits="userSpaceOnUse">
      <stop stop-color="#7B88FF"/>
      <stop offset="0.421875" stop-color="#DBDEFF"/>
      <stop offset="0.692708" stop-color="#D1C3FF"/>
      <stop offset="1" stop-color="#BA84FF"/>
    </linearGradient>
    <linearGradient id="paint_linear_634" x1="101.5" y1="33.5" x2="337.5" y2="605.5" gradientUnits="userSpaceOnUse">
      <stop stop-color="#7B88FF"/>
      <stop offset="0.421875" stop-color="#DBDEFF"/>
      <stop offset="0.692708" stop-color="#D1C3FF"/>
      <stop offset="1" stop-color="#BA84FF"/>
    </linearGradient>
    <linearGradient id="paint_linear_920" x1="101.5" y1="33.5" x2="337.5" y2="605.5" gradientUnits="userSpaceOnUse">
      <stop stop-color="#7B88FF"/>
      <stop offset="0.421875" stop-color="#DBDEFF"/>
      <stop offset="0.692708" stop-color="#D1C3FF"/>
      <stop offset="1" stop-color="#BA84FF"/>
    </linearGradient>
    <linearGradient id="paint_linear_16" x1="91" y1="0" x2="91" y2="283.5" gradientUnits="userSpaceOnUse">
      <stop stop-color="#AA9CFF"/>
      <stop offset="1" stop-color="white" stop-opacity="0"/>
    </linearGradient>
    <linearGradient id="paint_linear_847" x1="63.75" y1="0" x2="63.75" y2="236.5" gradientUnits="userSpaceOnUse">
      <stop stop-color="#916AFF"/>
      <stop offset="1" stop-color="white" stop-opacity="0"/>
    </linearGradient>
    <linearGradient id="paint_linear_578" x1="73" y1="296.5" x2="-104.5" y2="37.5" gradientUnits="userSpaceOnUse">
      <stop stop-color="#7B66FF"/>
      <stop offset="1" stop-color="white" stop-opacity="0"/>
    </linearGradient>
    <linearGradient id="paint_linear_91" x1="94" y1="0.5" x2="94" y2="355" gradientUnits="userSpaceOnUse">
      <stop stop-color="#F3D0FF"/>
      <stop offset="1" stop-color="white" stop-opacity="0"/>
    </linearGradient>
    <linearGradient id="paint_linear_313" x1="81.25" y1="5.94499e-09" x2="81.25" y2="377.5" gradientUnits="userSpaceOnUse">
      <stop stop-color="#A68FFF"/>
      <stop offset="1" stop-color="white" stop-opacity="0"/>
    </linearGradient>
    <linearGradient id="paint_linear_218" x1="209.5" y1="218" x2="90" y2="-75.5" gradientUnits="userSpaceOnUse">
      <stop stop-color="#A192FF"/>
      <stop offset="1" stop-color="white" stop-opacity="0"/>
    </linearGradient>
    <linearGradient id="paint_linear_918" x1="52.25" y1="2.5" x2="52.25" y2="331" gradientUnits="userSpaceOnUse">
      <stop stop-color="#BEB9FF"/>
      <stop offset="0.0001" stop-color="#7A28FF"/>
      <stop offset="0.765625" stop-color="white" stop-opacity="0"/>
    </linearGradient>
  </defs>
</svg>